<svg width="34" height="34" viewBox="0 0 34 34" fill="none" xmlns="http://www.w3.org/2000/svg">
<path id="autoplay_pressed" fill-rule="evenodd" clip-rule="evenodd" d="M8.4251 30.8862C10.9066 32.3253 13.6239 33.0449 16.5771 33.0449C20.2184 33.0449 23.4913 31.9742 26.3958 29.8327C29.3004 27.6912 31.2941 24.8768 32.3769 21.3893L30.0574 20.8762C29.098 23.805 27.3806 26.1707 24.9051 27.9731C22.4297 29.7755 19.6537 30.6768 16.5771 30.6768C13.9862 30.6768 11.5998 30.0164 9.41787 28.6957C7.23593 27.375 5.50434 25.5659 4.22311 23.2686H8.97163L8.97163 20.9005H0V29.8873H2.36809L2.36809 24.82C3.9246 27.425 5.9436 29.4471 8.4251 30.8862ZM1.26602 10.1436C0.668931 11.605 0.273236 13.1868 0.0789414 14.889L2.4713 14.889C2.6636 13.4458 3.00769 12.1403 3.50358 10.9724C3.99948 9.80454 4.66843 8.67612 5.51045 7.58716L3.80726 5.91429C2.7102 7.27246 1.86312 8.68223 1.26602 10.1436ZM6.0479 3.68885L7.72073 5.39207C8.80969 4.55006 9.96696 3.86845 11.1925 3.34724C12.4181 2.82604 13.6867 2.49965 14.9983 2.36808V0C13.3831 0.131564 11.821 0.510062 10.3121 1.13549C8.80315 1.76093 7.38176 2.61204 6.0479 3.68885ZM21.9889 3.35482C23.2631 3.89121 24.4092 4.5703 25.4273 5.39208L27.1154 3.70401C25.8078 2.62723 24.3955 1.77764 22.8785 1.15523C21.3615 0.532824 19.7873 0.147748 18.1558 0V2.36809C19.4371 2.48955 20.7148 2.81846 21.9889 3.35482ZM29.6673 10.9648C30.1884 12.1783 30.5249 13.4863 30.6768 14.889H33.0449C32.887 13.2272 32.4968 11.6378 31.8745 10.1208C31.2521 8.60378 30.3974 7.2016 29.3105 5.9143L27.6224 7.60236C28.4644 8.63057 29.146 9.75139 29.6673 10.9648ZM13.0253 10.0918V22.8434L22.9533 16.4676L13.0253 10.0918Z" fill="white"/>
</svg>
